<svg width="256" height="256" viewBox="0 0 256 256" fill="none" xmlns="http://www.w3.org/2000/svg">
  <rect x="16" y="16" width="224" height="224" rx="56" fill="#714b67"/>
  <path d="M84 170V88C84 84.6863 86.6863 82 90 82H140C159.882 82 176 98.1177 176 118C176 137.882 159.882 154 140 154H104V170C104 173.314 101.314 176 98 176H90C86.6863 176 84 173.314 84 170Z" fill="white" fill-opacity="0.95"/>
  <path d="M104 134H140C148.837 134 156 126.837 156 118C156 109.163 148.837 102 140 102H104V134Z" fill="#f3f4f6" fill-opacity="0.95"/>
</svg>
